TITLE ""
FILE "Step1_Track41.mp3" MP3
  TRACK 01 AUDIO
    TITLE "Step1_Track41_01"
    INDEX 01 00:00:00
  TRACK 02 AUDIO
    TITLE "Step1_Track41_02"
    INDEX 01 00:00:24
  TRACK 03 AUDIO
    TITLE "Step1_Track41_03"
    INDEX 01 00:02:03
  TRACK 04 AUDIO
    TITLE "Step1_Track41_04"
    INDEX 01 00:02:58
  TRACK 05 AUDIO
    TITLE "Step1_Track41_05"
    INDEX 01 00:03:56
  TRACK 06 AUDIO
    TITLE "Step1_Track41_06"
    INDEX 01 00:03:67
  TRACK 07 AUDIO
    TITLE "Step1_Track41_07"
    INDEX 01 00:05:25
  TRACK 08 AUDIO
    TITLE "Step1_Track41_08"
    INDEX 01 00:05:55
  TRACK 09 AUDIO
    TITLE "Step1_Track41_09"
    INDEX 01 00:06:56
  TRACK 10 AUDIO
    TITLE "Step1_Track41_10"
    INDEX 01 00:06:60
  TRACK 11 AUDIO
    TITLE "Step1_Track41_11"
    INDEX 01 00:08:47
  TRACK 12 AUDIO
    TITLE "Step1_Track41_12"
    INDEX 01 00:08:69
  TRACK 13 AUDIO
    TITLE "Step1_Track41_13"
    INDEX 01 00:09:72
  TRACK 14 AUDIO
    TITLE "Step1_Track41_14"
    INDEX 01 00:10:07
  TRACK 15 AUDIO
    TITLE "Step1_Track41_15"
    INDEX 01 00:11:49
  TRACK 16 AUDIO
    TITLE "Step1_Track41_16"
    INDEX 01 00:12:17
  TRACK 17 AUDIO
    TITLE "Step1_Track41_17"
    INDEX 01 00:13:19
  TRACK 18 AUDIO
    TITLE "Step1_Track41_18"
    INDEX 01 00:13:29
  TRACK 19 AUDIO
    TITLE "Step1_Track41_19"
    INDEX 01 00:15:08
  TRACK 20 AUDIO
    TITLE "Step1_Track41_20"
    INDEX 01 00:15:33
  TRACK 21 AUDIO
    TITLE "Step1_Track41_21"
    INDEX 01 00:16:41
  TRACK 22 AUDIO
    TITLE "Step1_Track41_22"
    INDEX 01 00:16:54
  TRACK 23 AUDIO
    TITLE "Step1_Track41_23"
    INDEX 01 00:19:17
  TRACK 24 AUDIO
    TITLE "Step1_Track41_24"
    INDEX 01 00:19:39
  TRACK 25 AUDIO
    TITLE "Step1_Track41_25"
    INDEX 01 00:20:48
  TRACK 26 AUDIO
    TITLE "Step1_Track41_26"
    INDEX 01 00:20:52
  TRACK 27 AUDIO
    TITLE "Step1_Track41_27"
    INDEX 01 00:24:50
  TRACK 28 AUDIO
    TITLE "Step1_Track41_28"
    INDEX 01 00:24:72
  TRACK 29 AUDIO
    TITLE "Step1_Track41_29"
    INDEX 01 00:25:75
  TRACK 30 AUDIO
    TITLE "Step1_Track41_30"
    INDEX 01 00:26:10
  TRACK 31 AUDIO
    TITLE "Step1_Track41_31"
    INDEX 01 00:28:61
  TRACK 32 AUDIO
    TITLE "Step1_Track41_32"
    INDEX 01 00:29:04
  TRACK 33 AUDIO
    TITLE "Step1_Track41_33"
    INDEX 01 00:29:59
  TRACK 34 AUDIO
    TITLE "Step1_Track41_34"
    INDEX 01 00:30:13
  TRACK 35 AUDIO
    TITLE "Step1_Track41_35"
    INDEX 01 00:32:57
  TRACK 36 AUDIO
    TITLE "Step1_Track41_36"
    INDEX 01 00:33:08
  TRACK 37 AUDIO
    TITLE "Step1_Track41_37"
    INDEX 01 00:34:11
  TRACK 38 AUDIO
    TITLE "Step1_Track41_38"
    INDEX 01 00:34:23
  TRACK 39 AUDIO
    TITLE "Step1_Track41_39"
    INDEX 01 00:36:69
  TRACK 40 AUDIO
    TITLE "Step1_Track41_40"
    INDEX 01 00:37:11
  TRACK 41 AUDIO
    TITLE "Step1_Track41_41"
    INDEX 01 00:38:09
  TRACK 42 AUDIO
    TITLE "Step1_Track41_42"
    INDEX 01 00:38:30
  TRACK 43 AUDIO
    TITLE "Step1_Track41_43"
    INDEX 01 00:40:61
